<svg width="15" height="14" viewBox="0 0 15 14" fill="none" xmlns="http://www.w3.org/2000/svg">
<g clip-path="url(#clip0_1_167)">
<path d="M10.0307 7.41975C9.35575 6.43698 8.20619 5.85016 6.95558 5.85016C5.70509 5.85016 4.55541 6.43698 3.88056 7.41975L2.25412 9.78787C1.98427 10.1808 1.85976 10.6347 1.89398 11.1003C1.92819 11.566 2.11805 11.9996 2.44295 12.3546C2.76808 12.7094 3.19769 12.9518 3.68532 13.0559C4.17295 13.1598 4.67283 13.1155 5.13082 12.9276L5.16069 12.9152C6.31323 12.4515 7.63056 12.4557 8.78023 12.9276C9.07675 13.0493 9.39089 13.1108 9.70789 13.1108C9.88024 13.1108 10.0536 13.0925 10.2254 13.056C10.713 12.9521 11.1426 12.7096 11.4679 12.3548C11.7929 11.9999 11.9829 11.5662 12.0172 11.1005C12.0515 10.6347 11.927 10.1808 11.6572 9.78777L10.0307 7.41975ZM10.7997 11.8214C10.386 12.2727 9.7167 12.4154 9.1342 12.1764C8.44183 11.8922 7.69865 11.7501 6.95524 11.7501C6.21252 11.7501 5.46945 11.8921 4.77754 12.176L4.75786 12.1841C4.17982 12.4122 3.52041 12.2677 3.11129 11.8214C2.69804 11.3699 2.651 10.7307 2.99433 10.2307L4.62088 7.8626C5.13334 7.11641 6.00607 6.6709 6.95558 6.6709C7.9051 6.6709 8.77794 7.11641 9.29052 7.8626L10.9168 10.2306C11.2603 10.7308 11.2131 11.3701 10.7997 11.8214Z" fill="white"/>
<path d="M2.69223 7.41668C3.17609 7.24322 3.54368 6.87932 3.72735 6.39193C3.90199 5.92816 3.88768 5.40457 3.68684 4.91751C3.48588 4.43076 3.12036 4.03342 2.65767 3.79855C2.17141 3.55192 1.63732 3.51176 1.15426 3.68554C0.182431 4.03428 -0.263545 5.15516 0.16023 6.18472C0.498746 7.00418 1.28827 7.52147 2.0865 7.52147C2.29032 7.52147 2.49471 7.48771 2.69223 7.41668ZM0.980771 5.88992C0.731061 5.28323 0.950444 4.63787 1.47012 4.45138C1.56396 4.41763 1.66318 4.40086 1.76446 4.40086C1.92079 4.40086 2.08226 4.4407 2.23768 4.51963C2.51714 4.66137 2.74041 4.90746 2.8663 5.21241C2.99207 5.51757 3.00329 5.83972 2.89777 6.11967C2.80107 6.37623 2.61602 6.56486 2.37684 6.65063L2.37638 6.65085C1.85739 6.83755 1.23128 6.49607 0.980771 5.88992Z" fill="white"/>
<path d="M5.84806 5.56136C7.06297 5.56136 8.05139 4.51033 8.05139 3.21844C8.05139 1.92624 7.06297 0.875 5.84806 0.875C4.63327 0.875 3.64496 1.92624 3.64496 3.21844C3.64496 4.51033 4.63327 5.56136 5.84806 5.56136ZM5.84806 1.69563C6.57808 1.69563 7.17214 2.3788 7.17214 3.21844C7.17214 4.05777 6.57808 4.74072 5.84806 4.74072C5.11804 4.74072 4.52421 4.05777 4.52421 3.21844C4.52421 2.3788 5.11804 1.69563 5.84806 1.69563Z" fill="white"/>
<path d="M9.65318 6.13698H9.6533C9.84018 6.19487 10.0308 6.22253 10.2207 6.22253C11.1067 6.22253 11.9702 5.62065 12.2996 4.69566C12.4894 4.16321 12.4769 3.6002 12.2645 3.11047C12.0423 2.59788 11.6304 2.22575 11.1046 2.06255C10.5789 1.89955 10.01 1.96748 9.50315 2.25395C9.01895 2.52771 8.64794 2.97162 8.45854 3.50407C8.05856 4.6273 8.59449 5.80843 9.65318 6.13698ZM9.29292 3.76288C9.41663 3.41521 9.65307 3.12874 9.95874 2.95592C10.2415 2.79602 10.5501 2.75532 10.8273 2.84131C11.1045 2.9274 11.3254 3.13226 11.4494 3.4183C11.5835 3.72742 11.5892 4.08908 11.4652 4.43675C11.2182 5.1306 10.5297 5.54396 9.93059 5.35821C9.33195 5.17236 9.04585 4.45673 9.29292 3.76288Z" fill="white"/>
<path d="M14.2932 5.86352L14.2929 5.8632C13.4551 5.28556 12.202 5.53593 11.4995 6.42161C10.7976 7.30771 10.9074 8.49898 11.7439 9.07704C12.049 9.288 12.4095 9.38883 12.7785 9.38883C13.4215 9.38883 14.0905 9.08249 14.5377 8.51917C15.2395 7.63306 15.1299 6.44179 14.2932 5.86352ZM13.831 8.03093C13.4161 8.55356 12.7147 8.72692 12.2672 8.41748C11.8199 8.10848 11.7927 7.43194 12.2064 6.90963C12.4814 6.56292 12.8831 6.37002 13.2533 6.37002C13.4405 6.37002 13.6197 6.41936 13.7703 6.52329C14.2172 6.83262 14.2444 7.50895 13.831 8.03093Z" fill="white"/>
</g>
<defs>
<clipPath id="clip0_1_167">
<rect width="15" height="14" fill="white"/>
</clipPath>
</defs>
</svg>
